<mxfile host="app.diagrams.net" modified="2024-04-15T03:56:06.910Z" agent="Mozilla/5.0 (Windows NT 10.0; Win64; x64) AppleWebKit/537.36 (KHTML, like Gecko) Chrome/123.0.0.0 Safari/537.36" etag="pEIG2FY-AjrPw7yB-rs4" version="22.1.18" type="device">
  <diagram name="Page-1" id="9gwG6gjJHzizomXSBNf0">
    <mxGraphModel dx="1833" dy="2308" grid="1" gridSize="10" guides="1" tooltips="1" connect="1" arrows="1" fold="1" page="1" pageScale="1" pageWidth="827" pageHeight="1169" math="0" shadow="0">
      <root>
        <mxCell id="0" />
        <mxCell id="1" parent="0" />
        <mxCell id="oWtgdVOHetes4q-Mx9o2-1" value="rx" style="rounded=0;whiteSpace=wrap;html=1;" parent="1" vertex="1">
          <mxGeometry x="760" width="40" height="40" as="geometry" />
        </mxCell>
        <mxCell id="oWtgdVOHetes4q-Mx9o2-2" value="&amp;amp;&lt;br&gt;ql" style="rounded=0;whiteSpace=wrap;html=1;fillColor=#f8cecc;strokeColor=#b85450;" parent="1" vertex="1">
          <mxGeometry x="680" width="40" height="40" as="geometry" />
        </mxCell>
        <mxCell id="oWtgdVOHetes4q-Mx9o2-3" value="" style="endArrow=classic;html=1;rounded=0;exitX=1;exitY=0.5;exitDx=0;exitDy=0;entryX=0;entryY=0.5;entryDx=0;entryDy=0;" parent="1" source="oWtgdVOHetes4q-Mx9o2-2" target="oWtgdVOHetes4q-Mx9o2-1" edge="1">
          <mxGeometry width="50" height="50" relative="1" as="geometry">
            <mxPoint x="560" y="180" as="sourcePoint" />
            <mxPoint x="610" y="130" as="targetPoint" />
          </mxGeometry>
        </mxCell>
        <mxCell id="oWtgdVOHetes4q-Mx9o2-4" value="&amp;amp;&lt;br&gt;fh" style="rounded=0;whiteSpace=wrap;html=1;fillColor=#f8cecc;strokeColor=#b85450;" parent="1" vertex="1">
          <mxGeometry x="560" y="-120" width="40" height="40" as="geometry" />
        </mxCell>
        <mxCell id="oWtgdVOHetes4q-Mx9o2-5" value="&amp;amp;&lt;br&gt;mf" style="rounded=0;whiteSpace=wrap;html=1;fillColor=#f8cecc;strokeColor=#b85450;" parent="1" vertex="1">
          <mxGeometry x="560" y="-40" width="40" height="40" as="geometry" />
        </mxCell>
        <mxCell id="oWtgdVOHetes4q-Mx9o2-6" value="&amp;amp;&lt;br&gt;fz" style="rounded=0;whiteSpace=wrap;html=1;fillColor=#f8cecc;strokeColor=#b85450;" parent="1" vertex="1">
          <mxGeometry x="560" y="40" width="40" height="40" as="geometry" />
        </mxCell>
        <mxCell id="oWtgdVOHetes4q-Mx9o2-7" value="&amp;amp;&lt;br&gt;ss" style="rounded=0;whiteSpace=wrap;html=1;fillColor=#f8cecc;strokeColor=#b85450;" parent="1" vertex="1">
          <mxGeometry x="560" y="120" width="40" height="40" as="geometry" />
        </mxCell>
        <mxCell id="oWtgdVOHetes4q-Mx9o2-9" value="" style="endArrow=classic;html=1;rounded=0;exitX=1;exitY=0.5;exitDx=0;exitDy=0;entryX=0;entryY=0;entryDx=0;entryDy=0;" parent="1" source="oWtgdVOHetes4q-Mx9o2-4" target="oWtgdVOHetes4q-Mx9o2-2" edge="1">
          <mxGeometry width="50" height="50" relative="1" as="geometry">
            <mxPoint x="560" y="80" as="sourcePoint" />
            <mxPoint x="680" y="-20" as="targetPoint" />
          </mxGeometry>
        </mxCell>
        <mxCell id="oWtgdVOHetes4q-Mx9o2-10" value="" style="endArrow=classic;html=1;rounded=0;exitX=1;exitY=0.5;exitDx=0;exitDy=0;entryX=0;entryY=0.25;entryDx=0;entryDy=0;" parent="1" source="oWtgdVOHetes4q-Mx9o2-5" target="oWtgdVOHetes4q-Mx9o2-2" edge="1">
          <mxGeometry width="50" height="50" relative="1" as="geometry">
            <mxPoint x="560" y="80" as="sourcePoint" />
            <mxPoint x="610" y="30" as="targetPoint" />
          </mxGeometry>
        </mxCell>
        <mxCell id="oWtgdVOHetes4q-Mx9o2-11" value="" style="endArrow=classic;html=1;rounded=0;entryX=0;entryY=0.75;entryDx=0;entryDy=0;exitX=1;exitY=0.5;exitDx=0;exitDy=0;" parent="1" source="oWtgdVOHetes4q-Mx9o2-6" target="oWtgdVOHetes4q-Mx9o2-2" edge="1">
          <mxGeometry width="50" height="50" relative="1" as="geometry">
            <mxPoint x="680" y="80" as="sourcePoint" />
            <mxPoint x="610" y="30" as="targetPoint" />
          </mxGeometry>
        </mxCell>
        <mxCell id="oWtgdVOHetes4q-Mx9o2-12" value="" style="endArrow=classic;html=1;rounded=0;exitX=1;exitY=0.5;exitDx=0;exitDy=0;entryX=0;entryY=1;entryDx=0;entryDy=0;" parent="1" source="oWtgdVOHetes4q-Mx9o2-7" target="oWtgdVOHetes4q-Mx9o2-2" edge="1">
          <mxGeometry width="50" height="50" relative="1" as="geometry">
            <mxPoint x="560" y="80" as="sourcePoint" />
            <mxPoint x="680" y="20" as="targetPoint" />
          </mxGeometry>
        </mxCell>
        <mxCell id="oWtgdVOHetes4q-Mx9o2-13" value="&amp;amp;&lt;br&gt;sn" style="rounded=0;whiteSpace=wrap;html=1;fillColor=#f8cecc;strokeColor=#b85450;" parent="1" vertex="1">
          <mxGeometry x="40" y="-480" width="40" height="40" as="geometry" />
        </mxCell>
        <mxCell id="oWtgdVOHetes4q-Mx9o2-14" value="&lt;br&gt;sd" style="rounded=0;whiteSpace=wrap;html=1;" parent="1" vertex="1">
          <mxGeometry x="200" y="-640" width="40" height="40" as="geometry" />
        </mxCell>
        <mxCell id="oWtgdVOHetes4q-Mx9o2-15" value="" style="endArrow=classic;html=1;rounded=0;exitX=1;exitY=0.5;exitDx=0;exitDy=0;entryX=0;entryY=0.5;entryDx=0;entryDy=0;" parent="1" source="oWtgdVOHetes4q-Mx9o2-13" target="oWtgdVOHetes4q-Mx9o2-14" edge="1">
          <mxGeometry width="50" height="50" relative="1" as="geometry">
            <mxPoint x="240" y="-270" as="sourcePoint" />
            <mxPoint x="290" y="-320" as="targetPoint" />
          </mxGeometry>
        </mxCell>
        <mxCell id="oWtgdVOHetes4q-Mx9o2-16" value="" style="endArrow=classic;html=1;rounded=0;entryX=0;entryY=0.5;entryDx=0;entryDy=0;exitX=1;exitY=0.5;exitDx=0;exitDy=0;" parent="1" source="oWtgdVOHetes4q-Mx9o2-13" target="oWtgdVOHetes4q-Mx9o2-4" edge="1">
          <mxGeometry width="50" height="50" relative="1" as="geometry">
            <mxPoint x="320" y="-300" as="sourcePoint" />
            <mxPoint x="410" y="-370" as="targetPoint" />
          </mxGeometry>
        </mxCell>
        <mxCell id="oWtgdVOHetes4q-Mx9o2-17" value="&lt;br&gt;th" style="rounded=0;whiteSpace=wrap;html=1;" parent="1" vertex="1">
          <mxGeometry x="240" y="-440" width="40" height="40" as="geometry" />
        </mxCell>
        <mxCell id="oWtgdVOHetes4q-Mx9o2-18" value="" style="endArrow=classic;html=1;rounded=0;exitX=1;exitY=0.5;exitDx=0;exitDy=0;entryX=0;entryY=0.25;entryDx=0;entryDy=0;" parent="1" source="oWtgdVOHetes4q-Mx9o2-13" target="oWtgdVOHetes4q-Mx9o2-17" edge="1">
          <mxGeometry width="50" height="50" relative="1" as="geometry">
            <mxPoint x="90" y="-450" as="sourcePoint" />
            <mxPoint x="170" y="-530" as="targetPoint" />
          </mxGeometry>
        </mxCell>
        <mxCell id="oWtgdVOHetes4q-Mx9o2-19" value="&lt;br&gt;qb" style="rounded=0;whiteSpace=wrap;html=1;" parent="1" vertex="1">
          <mxGeometry x="200" y="-560" width="40" height="40" as="geometry" />
        </mxCell>
        <mxCell id="oWtgdVOHetes4q-Mx9o2-20" value="" style="endArrow=classic;html=1;rounded=0;exitX=1;exitY=0.5;exitDx=0;exitDy=0;entryX=0;entryY=0.5;entryDx=0;entryDy=0;" parent="1" source="oWtgdVOHetes4q-Mx9o2-13" target="oWtgdVOHetes4q-Mx9o2-19" edge="1">
          <mxGeometry width="50" height="50" relative="1" as="geometry">
            <mxPoint x="90" y="-450" as="sourcePoint" />
            <mxPoint x="170" y="-490" as="targetPoint" />
          </mxGeometry>
        </mxCell>
        <mxCell id="oWtgdVOHetes4q-Mx9o2-21" value="&lt;br&gt;nl" style="rounded=0;whiteSpace=wrap;html=1;" parent="1" vertex="1">
          <mxGeometry x="200" y="-520" width="40" height="40" as="geometry" />
        </mxCell>
        <mxCell id="oWtgdVOHetes4q-Mx9o2-22" value="" style="endArrow=classic;html=1;rounded=0;exitX=1;exitY=0.5;exitDx=0;exitDy=0;entryX=0;entryY=0.5;entryDx=0;entryDy=0;" parent="1" source="oWtgdVOHetes4q-Mx9o2-13" target="oWtgdVOHetes4q-Mx9o2-21" edge="1">
          <mxGeometry width="50" height="50" relative="1" as="geometry">
            <mxPoint x="90" y="-450" as="sourcePoint" />
            <mxPoint x="210" y="-490" as="targetPoint" />
          </mxGeometry>
        </mxCell>
        <mxCell id="oWtgdVOHetes4q-Mx9o2-23" value="%&lt;br&gt;ng" style="rounded=0;whiteSpace=wrap;html=1;fillColor=#d5e8d4;strokeColor=#82b366;" parent="1" vertex="1">
          <mxGeometry x="200" y="-720" width="40" height="40" as="geometry" />
        </mxCell>
        <mxCell id="oWtgdVOHetes4q-Mx9o2-24" value="" style="endArrow=classic;html=1;rounded=0;exitX=1;exitY=0.5;exitDx=0;exitDy=0;entryX=0;entryY=1;entryDx=0;entryDy=0;" parent="1" source="oWtgdVOHetes4q-Mx9o2-13" target="oWtgdVOHetes4q-Mx9o2-23" edge="1">
          <mxGeometry width="50" height="50" relative="1" as="geometry">
            <mxPoint x="90" y="-450" as="sourcePoint" />
            <mxPoint x="210" y="-450" as="targetPoint" />
          </mxGeometry>
        </mxCell>
        <mxCell id="oWtgdVOHetes4q-Mx9o2-25" value="&lt;br&gt;nc" style="rounded=0;whiteSpace=wrap;html=1;" parent="1" vertex="1">
          <mxGeometry x="200" y="-600" width="40" height="40" as="geometry" />
        </mxCell>
        <mxCell id="oWtgdVOHetes4q-Mx9o2-26" value="" style="endArrow=classic;html=1;rounded=0;entryX=0;entryY=0.5;entryDx=0;entryDy=0;exitX=1;exitY=0.5;exitDx=0;exitDy=0;" parent="1" source="oWtgdVOHetes4q-Mx9o2-13" target="oWtgdVOHetes4q-Mx9o2-25" edge="1">
          <mxGeometry width="50" height="50" relative="1" as="geometry">
            <mxPoint x="130" y="-440" as="sourcePoint" />
            <mxPoint x="210" y="-450" as="targetPoint" />
          </mxGeometry>
        </mxCell>
        <mxCell id="oWtgdVOHetes4q-Mx9o2-27" value="&amp;amp;&lt;br&gt;hl" style="rounded=0;whiteSpace=wrap;html=1;fillColor=#f8cecc;strokeColor=#b85450;" parent="1" vertex="1">
          <mxGeometry x="40" y="-160" width="40" height="40" as="geometry" />
        </mxCell>
        <mxCell id="oWtgdVOHetes4q-Mx9o2-28" value="&lt;br&gt;nj" style="rounded=0;whiteSpace=wrap;html=1;" parent="1" vertex="1">
          <mxGeometry x="200" y="-320" width="40" height="40" as="geometry" />
        </mxCell>
        <mxCell id="oWtgdVOHetes4q-Mx9o2-29" value="" style="endArrow=classic;html=1;rounded=0;exitX=1;exitY=0.5;exitDx=0;exitDy=0;entryX=0;entryY=0.5;entryDx=0;entryDy=0;" parent="1" source="oWtgdVOHetes4q-Mx9o2-27" target="oWtgdVOHetes4q-Mx9o2-28" edge="1">
          <mxGeometry width="50" height="50" relative="1" as="geometry">
            <mxPoint x="240" y="50" as="sourcePoint" />
            <mxPoint x="290" as="targetPoint" />
          </mxGeometry>
        </mxCell>
        <mxCell id="oWtgdVOHetes4q-Mx9o2-30" value="&lt;br&gt;lb" style="rounded=0;whiteSpace=wrap;html=1;" parent="1" vertex="1">
          <mxGeometry x="200" y="-280" width="40" height="40" as="geometry" />
        </mxCell>
        <mxCell id="oWtgdVOHetes4q-Mx9o2-31" value="" style="endArrow=classic;html=1;rounded=0;exitX=1;exitY=0.5;exitDx=0;exitDy=0;entryX=0;entryY=0.5;entryDx=0;entryDy=0;" parent="1" source="oWtgdVOHetes4q-Mx9o2-27" target="oWtgdVOHetes4q-Mx9o2-30" edge="1">
          <mxGeometry width="50" height="50" relative="1" as="geometry">
            <mxPoint x="90" y="-130" as="sourcePoint" />
            <mxPoint x="170" y="-210" as="targetPoint" />
          </mxGeometry>
        </mxCell>
        <mxCell id="oWtgdVOHetes4q-Mx9o2-32" value="&lt;br&gt;tl" style="rounded=0;whiteSpace=wrap;html=1;" parent="1" vertex="1">
          <mxGeometry x="200" y="-240" width="40" height="40" as="geometry" />
        </mxCell>
        <mxCell id="oWtgdVOHetes4q-Mx9o2-33" value="" style="endArrow=classic;html=1;rounded=0;exitX=1;exitY=0.5;exitDx=0;exitDy=0;entryX=0;entryY=0.5;entryDx=0;entryDy=0;" parent="1" source="oWtgdVOHetes4q-Mx9o2-27" target="oWtgdVOHetes4q-Mx9o2-32" edge="1">
          <mxGeometry width="50" height="50" relative="1" as="geometry">
            <mxPoint x="90" y="-130" as="sourcePoint" />
            <mxPoint x="170" y="-170" as="targetPoint" />
          </mxGeometry>
        </mxCell>
        <mxCell id="oWtgdVOHetes4q-Mx9o2-34" value="&lt;br&gt;xx" style="rounded=0;whiteSpace=wrap;html=1;" parent="1" vertex="1">
          <mxGeometry x="200" y="-200" width="40" height="40" as="geometry" />
        </mxCell>
        <mxCell id="oWtgdVOHetes4q-Mx9o2-35" value="" style="endArrow=classic;html=1;rounded=0;exitX=1;exitY=0.5;exitDx=0;exitDy=0;entryX=0;entryY=0.5;entryDx=0;entryDy=0;" parent="1" source="oWtgdVOHetes4q-Mx9o2-27" target="oWtgdVOHetes4q-Mx9o2-34" edge="1">
          <mxGeometry width="50" height="50" relative="1" as="geometry">
            <mxPoint x="90" y="-130" as="sourcePoint" />
            <mxPoint x="210" y="-170" as="targetPoint" />
          </mxGeometry>
        </mxCell>
        <mxCell id="oWtgdVOHetes4q-Mx9o2-36" value="&lt;br&gt;hb" style="rounded=0;whiteSpace=wrap;html=1;" parent="1" vertex="1">
          <mxGeometry x="200" y="-160" width="40" height="40" as="geometry" />
        </mxCell>
        <mxCell id="oWtgdVOHetes4q-Mx9o2-37" value="" style="endArrow=classic;html=1;rounded=0;exitX=1;exitY=0.5;exitDx=0;exitDy=0;entryX=0;entryY=0.5;entryDx=0;entryDy=0;" parent="1" source="oWtgdVOHetes4q-Mx9o2-27" target="oWtgdVOHetes4q-Mx9o2-36" edge="1">
          <mxGeometry width="50" height="50" relative="1" as="geometry">
            <mxPoint x="90" y="-130" as="sourcePoint" />
            <mxPoint x="210" y="-130" as="targetPoint" />
          </mxGeometry>
        </mxCell>
        <mxCell id="oWtgdVOHetes4q-Mx9o2-38" value="&lt;br&gt;fp" style="rounded=0;whiteSpace=wrap;html=1;" parent="1" vertex="1">
          <mxGeometry x="200" y="-80" width="40" height="40" as="geometry" />
        </mxCell>
        <mxCell id="oWtgdVOHetes4q-Mx9o2-39" value="" style="endArrow=classic;html=1;rounded=0;entryX=0;entryY=0.5;entryDx=0;entryDy=0;exitX=1;exitY=0.5;exitDx=0;exitDy=0;" parent="1" source="oWtgdVOHetes4q-Mx9o2-27" target="oWtgdVOHetes4q-Mx9o2-38" edge="1">
          <mxGeometry width="50" height="50" relative="1" as="geometry">
            <mxPoint x="130" y="-120" as="sourcePoint" />
            <mxPoint x="210" y="-130" as="targetPoint" />
          </mxGeometry>
        </mxCell>
        <mxCell id="oWtgdVOHetes4q-Mx9o2-40" value="" style="endArrow=classic;html=1;rounded=0;exitX=1;exitY=0.5;exitDx=0;exitDy=0;entryX=0;entryY=0.5;entryDx=0;entryDy=0;" parent="1" source="oWtgdVOHetes4q-Mx9o2-27" target="oWtgdVOHetes4q-Mx9o2-5" edge="1">
          <mxGeometry width="50" height="50" relative="1" as="geometry">
            <mxPoint x="90" y="-130" as="sourcePoint" />
            <mxPoint x="210" y="-130" as="targetPoint" />
          </mxGeometry>
        </mxCell>
        <mxCell id="oWtgdVOHetes4q-Mx9o2-41" value="&amp;amp;&lt;br&gt;tf" style="rounded=0;whiteSpace=wrap;html=1;fillColor=#f8cecc;strokeColor=#b85450;" parent="1" vertex="1">
          <mxGeometry x="40" y="160" width="40" height="40" as="geometry" />
        </mxCell>
        <mxCell id="oWtgdVOHetes4q-Mx9o2-42" value="&lt;br&gt;cb" style="rounded=0;whiteSpace=wrap;html=1;" parent="1" vertex="1">
          <mxGeometry x="200" width="40" height="40" as="geometry" />
        </mxCell>
        <mxCell id="oWtgdVOHetes4q-Mx9o2-43" value="" style="endArrow=classic;html=1;rounded=0;exitX=1;exitY=0.5;exitDx=0;exitDy=0;entryX=0;entryY=0.5;entryDx=0;entryDy=0;" parent="1" source="oWtgdVOHetes4q-Mx9o2-41" target="oWtgdVOHetes4q-Mx9o2-42" edge="1">
          <mxGeometry width="50" height="50" relative="1" as="geometry">
            <mxPoint x="240" y="370" as="sourcePoint" />
            <mxPoint x="290" y="320" as="targetPoint" />
          </mxGeometry>
        </mxCell>
        <mxCell id="oWtgdVOHetes4q-Mx9o2-44" value="&lt;br&gt;jg" style="rounded=0;whiteSpace=wrap;html=1;" parent="1" vertex="1">
          <mxGeometry x="200" y="40" width="40" height="40" as="geometry" />
        </mxCell>
        <mxCell id="oWtgdVOHetes4q-Mx9o2-45" value="" style="endArrow=classic;html=1;rounded=0;exitX=1;exitY=0.5;exitDx=0;exitDy=0;entryX=0;entryY=0.5;entryDx=0;entryDy=0;" parent="1" source="oWtgdVOHetes4q-Mx9o2-41" target="oWtgdVOHetes4q-Mx9o2-44" edge="1">
          <mxGeometry width="50" height="50" relative="1" as="geometry">
            <mxPoint x="90" y="190" as="sourcePoint" />
            <mxPoint x="170" y="110" as="targetPoint" />
          </mxGeometry>
        </mxCell>
        <mxCell id="oWtgdVOHetes4q-Mx9o2-46" value="&lt;br&gt;gr" style="rounded=0;whiteSpace=wrap;html=1;" parent="1" vertex="1">
          <mxGeometry x="200" y="80" width="40" height="40" as="geometry" />
        </mxCell>
        <mxCell id="oWtgdVOHetes4q-Mx9o2-47" value="" style="endArrow=classic;html=1;rounded=0;exitX=1;exitY=0.5;exitDx=0;exitDy=0;entryX=0;entryY=0.5;entryDx=0;entryDy=0;" parent="1" source="oWtgdVOHetes4q-Mx9o2-41" target="oWtgdVOHetes4q-Mx9o2-46" edge="1">
          <mxGeometry width="50" height="50" relative="1" as="geometry">
            <mxPoint x="90" y="190" as="sourcePoint" />
            <mxPoint x="170" y="150" as="targetPoint" />
          </mxGeometry>
        </mxCell>
        <mxCell id="oWtgdVOHetes4q-Mx9o2-48" value="&lt;br&gt;zj" style="rounded=0;whiteSpace=wrap;html=1;" parent="1" vertex="1">
          <mxGeometry x="200" y="160" width="40" height="40" as="geometry" />
        </mxCell>
        <mxCell id="oWtgdVOHetes4q-Mx9o2-49" value="" style="endArrow=classic;html=1;rounded=0;exitX=1;exitY=0.5;exitDx=0;exitDy=0;entryX=0;entryY=0.5;entryDx=0;entryDy=0;" parent="1" source="oWtgdVOHetes4q-Mx9o2-41" target="oWtgdVOHetes4q-Mx9o2-48" edge="1">
          <mxGeometry width="50" height="50" relative="1" as="geometry">
            <mxPoint x="90" y="190" as="sourcePoint" />
            <mxPoint x="210" y="150" as="targetPoint" />
          </mxGeometry>
        </mxCell>
        <mxCell id="oWtgdVOHetes4q-Mx9o2-50" value="&lt;br&gt;qn" style="rounded=0;whiteSpace=wrap;html=1;" parent="1" vertex="1">
          <mxGeometry x="200" y="200" width="40" height="40" as="geometry" />
        </mxCell>
        <mxCell id="oWtgdVOHetes4q-Mx9o2-51" value="" style="endArrow=classic;html=1;rounded=0;exitX=1;exitY=0.5;exitDx=0;exitDy=0;entryX=0;entryY=0.5;entryDx=0;entryDy=0;" parent="1" source="oWtgdVOHetes4q-Mx9o2-41" target="oWtgdVOHetes4q-Mx9o2-50" edge="1">
          <mxGeometry width="50" height="50" relative="1" as="geometry">
            <mxPoint x="90" y="190" as="sourcePoint" />
            <mxPoint x="210" y="190" as="targetPoint" />
          </mxGeometry>
        </mxCell>
        <mxCell id="oWtgdVOHetes4q-Mx9o2-52" value="&lt;br&gt;kb" style="rounded=0;whiteSpace=wrap;html=1;" parent="1" vertex="1">
          <mxGeometry x="200" y="240" width="40" height="40" as="geometry" />
        </mxCell>
        <mxCell id="oWtgdVOHetes4q-Mx9o2-53" value="" style="endArrow=classic;html=1;rounded=0;entryX=0;entryY=0.5;entryDx=0;entryDy=0;exitX=1;exitY=0.5;exitDx=0;exitDy=0;" parent="1" source="oWtgdVOHetes4q-Mx9o2-41" target="oWtgdVOHetes4q-Mx9o2-52" edge="1">
          <mxGeometry width="50" height="50" relative="1" as="geometry">
            <mxPoint x="130" y="200" as="sourcePoint" />
            <mxPoint x="210" y="190" as="targetPoint" />
          </mxGeometry>
        </mxCell>
        <mxCell id="oWtgdVOHetes4q-Mx9o2-54" value="" style="endArrow=classic;html=1;rounded=0;exitX=1;exitY=0.5;exitDx=0;exitDy=0;entryX=0;entryY=0.5;entryDx=0;entryDy=0;" parent="1" source="oWtgdVOHetes4q-Mx9o2-41" target="oWtgdVOHetes4q-Mx9o2-6" edge="1">
          <mxGeometry width="50" height="50" relative="1" as="geometry">
            <mxPoint x="90" y="190" as="sourcePoint" />
            <mxPoint x="210" y="110" as="targetPoint" />
          </mxGeometry>
        </mxCell>
        <mxCell id="oWtgdVOHetes4q-Mx9o2-55" value="&amp;amp;&lt;br&gt;lr" style="rounded=0;whiteSpace=wrap;html=1;fillColor=#f8cecc;strokeColor=#b85450;" parent="1" vertex="1">
          <mxGeometry x="40" y="360" width="40" height="40" as="geometry" />
        </mxCell>
        <mxCell id="oWtgdVOHetes4q-Mx9o2-56" value="&lt;br&gt;rm" style="rounded=0;whiteSpace=wrap;html=1;" parent="1" vertex="1">
          <mxGeometry x="200" y="360" width="40" height="40" as="geometry" />
        </mxCell>
        <mxCell id="oWtgdVOHetes4q-Mx9o2-57" value="" style="endArrow=classic;html=1;rounded=0;exitX=1;exitY=0.5;exitDx=0;exitDy=0;entryX=0;entryY=0.5;entryDx=0;entryDy=0;" parent="1" source="oWtgdVOHetes4q-Mx9o2-55" target="oWtgdVOHetes4q-Mx9o2-56" edge="1">
          <mxGeometry width="50" height="50" relative="1" as="geometry">
            <mxPoint x="240" y="570" as="sourcePoint" />
            <mxPoint x="290" y="520" as="targetPoint" />
          </mxGeometry>
        </mxCell>
        <mxCell id="oWtgdVOHetes4q-Mx9o2-58" value="&lt;br&gt;dc" style="rounded=0;whiteSpace=wrap;html=1;" parent="1" vertex="1">
          <mxGeometry x="200" y="400" width="40" height="40" as="geometry" />
        </mxCell>
        <mxCell id="oWtgdVOHetes4q-Mx9o2-59" value="" style="endArrow=classic;html=1;rounded=0;exitX=1;exitY=0.5;exitDx=0;exitDy=0;entryX=0;entryY=0.5;entryDx=0;entryDy=0;" parent="1" source="oWtgdVOHetes4q-Mx9o2-55" target="oWtgdVOHetes4q-Mx9o2-58" edge="1">
          <mxGeometry width="50" height="50" relative="1" as="geometry">
            <mxPoint x="90" y="390" as="sourcePoint" />
            <mxPoint x="170" y="310" as="targetPoint" />
          </mxGeometry>
        </mxCell>
        <mxCell id="oWtgdVOHetes4q-Mx9o2-60" value="&lt;br&gt;js" style="rounded=0;whiteSpace=wrap;html=1;" parent="1" vertex="1">
          <mxGeometry x="200" y="440" width="40" height="40" as="geometry" />
        </mxCell>
        <mxCell id="oWtgdVOHetes4q-Mx9o2-61" value="" style="endArrow=classic;html=1;rounded=0;exitX=1;exitY=0.5;exitDx=0;exitDy=0;entryX=0;entryY=0.5;entryDx=0;entryDy=0;" parent="1" source="oWtgdVOHetes4q-Mx9o2-55" target="oWtgdVOHetes4q-Mx9o2-60" edge="1">
          <mxGeometry width="50" height="50" relative="1" as="geometry">
            <mxPoint x="90" y="390" as="sourcePoint" />
            <mxPoint x="170" y="350" as="targetPoint" />
          </mxGeometry>
        </mxCell>
        <mxCell id="oWtgdVOHetes4q-Mx9o2-62" value="&lt;br&gt;gk" style="rounded=0;whiteSpace=wrap;html=1;" parent="1" vertex="1">
          <mxGeometry x="200" y="480" width="40" height="40" as="geometry" />
        </mxCell>
        <mxCell id="oWtgdVOHetes4q-Mx9o2-63" value="" style="endArrow=classic;html=1;rounded=0;exitX=1;exitY=0.5;exitDx=0;exitDy=0;entryX=0;entryY=0.5;entryDx=0;entryDy=0;" parent="1" source="oWtgdVOHetes4q-Mx9o2-55" target="oWtgdVOHetes4q-Mx9o2-62" edge="1">
          <mxGeometry width="50" height="50" relative="1" as="geometry">
            <mxPoint x="90" y="390" as="sourcePoint" />
            <mxPoint x="210" y="350" as="targetPoint" />
          </mxGeometry>
        </mxCell>
        <mxCell id="oWtgdVOHetes4q-Mx9o2-64" value="&lt;br&gt;dp" style="rounded=0;whiteSpace=wrap;html=1;" parent="1" vertex="1">
          <mxGeometry x="200" y="520" width="40" height="40" as="geometry" />
        </mxCell>
        <mxCell id="oWtgdVOHetes4q-Mx9o2-65" value="" style="endArrow=classic;html=1;rounded=0;exitX=1;exitY=0.5;exitDx=0;exitDy=0;entryX=0;entryY=0.5;entryDx=0;entryDy=0;" parent="1" source="oWtgdVOHetes4q-Mx9o2-55" target="oWtgdVOHetes4q-Mx9o2-64" edge="1">
          <mxGeometry width="50" height="50" relative="1" as="geometry">
            <mxPoint x="90" y="390" as="sourcePoint" />
            <mxPoint x="210" y="390" as="targetPoint" />
          </mxGeometry>
        </mxCell>
        <mxCell id="oWtgdVOHetes4q-Mx9o2-66" value="&lt;br&gt;bq" style="rounded=0;whiteSpace=wrap;html=1;" parent="1" vertex="1">
          <mxGeometry x="200" y="560" width="40" height="40" as="geometry" />
        </mxCell>
        <mxCell id="oWtgdVOHetes4q-Mx9o2-67" value="" style="endArrow=classic;html=1;rounded=0;entryX=0;entryY=0.5;entryDx=0;entryDy=0;exitX=1;exitY=0.5;exitDx=0;exitDy=0;" parent="1" source="oWtgdVOHetes4q-Mx9o2-55" target="oWtgdVOHetes4q-Mx9o2-66" edge="1">
          <mxGeometry width="50" height="50" relative="1" as="geometry">
            <mxPoint x="130" y="400" as="sourcePoint" />
            <mxPoint x="210" y="390" as="targetPoint" />
          </mxGeometry>
        </mxCell>
        <mxCell id="oWtgdVOHetes4q-Mx9o2-68" value="" style="endArrow=classic;html=1;rounded=0;exitX=1;exitY=0.5;exitDx=0;exitDy=0;entryX=0;entryY=0.5;entryDx=0;entryDy=0;" parent="1" source="oWtgdVOHetes4q-Mx9o2-55" target="oWtgdVOHetes4q-Mx9o2-7" edge="1">
          <mxGeometry width="50" height="50" relative="1" as="geometry">
            <mxPoint x="80" y="430" as="sourcePoint" />
            <mxPoint x="200" y="350" as="targetPoint" />
          </mxGeometry>
        </mxCell>
        <mxCell id="oWtgdVOHetes4q-Mx9o2-69" value="%&lt;br&gt;vp" style="rounded=0;whiteSpace=wrap;html=1;fillColor=#d5e8d4;strokeColor=#82b366;" parent="1" vertex="1">
          <mxGeometry x="-320" y="-480" width="40" height="40" as="geometry" />
        </mxCell>
        <mxCell id="oWtgdVOHetes4q-Mx9o2-72" value="" style="endArrow=classic;html=1;rounded=0;exitX=1;exitY=0.5;exitDx=0;exitDy=0;entryX=0;entryY=0.5;entryDx=0;entryDy=0;" parent="1" source="oWtgdVOHetes4q-Mx9o2-69" target="oWtgdVOHetes4q-Mx9o2-13" edge="1">
          <mxGeometry width="50" height="50" relative="1" as="geometry">
            <mxPoint x="-70" y="-390" as="sourcePoint" />
            <mxPoint x="50" y="-430" as="targetPoint" />
          </mxGeometry>
        </mxCell>
        <mxCell id="oWtgdVOHetes4q-Mx9o2-73" value="" style="endArrow=classic;html=1;rounded=0;exitX=1;exitY=1;exitDx=0;exitDy=0;entryX=0;entryY=0;entryDx=0;entryDy=0;" parent="1" source="oWtgdVOHetes4q-Mx9o2-69" target="oWtgdVOHetes4q-Mx9o2-74" edge="1">
          <mxGeometry width="50" height="50" relative="1" as="geometry">
            <mxPoint x="-270" y="-450" as="sourcePoint" />
            <mxPoint x="-280" y="-510" as="targetPoint" />
          </mxGeometry>
        </mxCell>
        <mxCell id="oWtgdVOHetes4q-Mx9o2-74" value="%&lt;br&gt;vf" style="rounded=0;whiteSpace=wrap;html=1;fillColor=#d5e8d4;strokeColor=#82b366;" parent="1" vertex="1">
          <mxGeometry x="-240" y="-400" width="40" height="40" as="geometry" />
        </mxCell>
        <mxCell id="oWtgdVOHetes4q-Mx9o2-76" value="" style="endArrow=classic;html=1;rounded=0;exitX=1;exitY=0.5;exitDx=0;exitDy=0;entryX=0;entryY=1;entryDx=0;entryDy=0;" parent="1" source="oWtgdVOHetes4q-Mx9o2-74" target="oWtgdVOHetes4q-Mx9o2-13" edge="1">
          <mxGeometry width="50" height="50" relative="1" as="geometry">
            <mxPoint x="-170" y="-430" as="sourcePoint" />
            <mxPoint x="-130" y="-390" as="targetPoint" />
          </mxGeometry>
        </mxCell>
        <mxCell id="oWtgdVOHetes4q-Mx9o2-77" value="" style="endArrow=classic;html=1;rounded=0;entryX=0;entryY=0.75;entryDx=0;entryDy=0;" parent="1" target="oWtgdVOHetes4q-Mx9o2-17" edge="1">
          <mxGeometry width="50" height="50" relative="1" as="geometry">
            <mxPoint x="-200" y="-380" as="sourcePoint" />
            <mxPoint x="130" y="-330" as="targetPoint" />
          </mxGeometry>
        </mxCell>
        <mxCell id="oWtgdVOHetes4q-Mx9o2-80" value="%&lt;br&gt;xd" style="rounded=0;whiteSpace=wrap;html=1;fillColor=#d5e8d4;strokeColor=#82b366;" parent="1" vertex="1">
          <mxGeometry x="-320" y="-560" width="40" height="40" as="geometry" />
        </mxCell>
        <mxCell id="oWtgdVOHetes4q-Mx9o2-81" value="&lt;br&gt;tn" style="rounded=0;whiteSpace=wrap;html=1;" parent="1" vertex="1">
          <mxGeometry x="-200" y="-640" width="40" height="40" as="geometry" />
        </mxCell>
        <mxCell id="oWtgdVOHetes4q-Mx9o2-82" value="" style="endArrow=classic;html=1;rounded=0;exitX=1;exitY=0.5;exitDx=0;exitDy=0;entryX=0;entryY=0.25;entryDx=0;entryDy=0;" parent="1" source="oWtgdVOHetes4q-Mx9o2-80" target="oWtgdVOHetes4q-Mx9o2-13" edge="1">
          <mxGeometry width="50" height="50" relative="1" as="geometry">
            <mxPoint x="-270" y="-500.29" as="sourcePoint" />
            <mxPoint x="50" y="-500.29" as="targetPoint" />
          </mxGeometry>
        </mxCell>
        <mxCell id="oWtgdVOHetes4q-Mx9o2-83" value="" style="endArrow=classic;html=1;rounded=0;exitX=1;exitY=0.5;exitDx=0;exitDy=0;entryX=0;entryY=1;entryDx=0;entryDy=0;" parent="1" source="oWtgdVOHetes4q-Mx9o2-80" target="oWtgdVOHetes4q-Mx9o2-81" edge="1">
          <mxGeometry width="50" height="50" relative="1" as="geometry">
            <mxPoint x="-250" y="-584" as="sourcePoint" />
            <mxPoint x="70" y="-514" as="targetPoint" />
          </mxGeometry>
        </mxCell>
        <mxCell id="oWtgdVOHetes4q-Mx9o2-84" value="" style="endArrow=classic;html=1;exitX=1;exitY=0.5;exitDx=0;exitDy=0;entryX=0.5;entryY=0;entryDx=0;entryDy=0;curved=1;fillColor=#e1d5e7;strokeColor=#9673a6;" parent="1" source="oWtgdVOHetes4q-Mx9o2-23" target="oWtgdVOHetes4q-Mx9o2-13" edge="1">
          <mxGeometry width="50" height="50" relative="1" as="geometry">
            <mxPoint x="180" y="-490" as="sourcePoint" />
            <mxPoint x="60" y="-730" as="targetPoint" />
            <Array as="points">
              <mxPoint x="390" y="-690" />
              <mxPoint x="520" y="-810" />
              <mxPoint x="30" y="-850" />
            </Array>
          </mxGeometry>
        </mxCell>
        <mxCell id="oWtgdVOHetes4q-Mx9o2-85" value="" style="endArrow=classic;html=1;exitX=1;exitY=0.5;exitDx=0;exitDy=0;entryX=0;entryY=0;entryDx=0;entryDy=0;curved=1;fillColor=#e1d5e7;strokeColor=#9673a6;" parent="1" source="oWtgdVOHetes4q-Mx9o2-23" target="oWtgdVOHetes4q-Mx9o2-69" edge="1">
          <mxGeometry width="50" height="50" relative="1" as="geometry">
            <mxPoint x="-240" y="-750" as="sourcePoint" />
            <mxPoint x="-420" y="-530" as="targetPoint" />
            <Array as="points">
              <mxPoint x="380" y="-710" />
              <mxPoint x="500" y="-780" />
              <mxPoint x="260" y="-940" />
              <mxPoint x="-450" y="-900" />
            </Array>
          </mxGeometry>
        </mxCell>
      </root>
    </mxGraphModel>
  </diagram>
</mxfile>
